<?xml version="1.0" standalone="no"?>
<!DOCTYPE svg PUBLIC "-//W3C//DTD SVG 20010904//EN"
 "http://www.w3.org/TR/2001/REC-SVG-20010904/DTD/svg10.dtd">
<svg version="1.0" xmlns="http://www.w3.org/2000/svg"
 width="260.000000pt" height="260.000000pt" viewBox="0 0 260.000000 260.000000"
 preserveAspectRatio="xMidYMid meet">
<metadata>
Created by potrace 1.11, written by Peter Selinger 2001-2013
</metadata>
<g transform="translate(0.000000,260.000000) scale(0.100000,-0.100000)"
fill="#000000" stroke="none">
<path d="M1056 1842 c-2 -1 -96 -4 -211 -6 -147 -2 -209 -7 -214 -15 -5 -7 -9
-34 -10 -62 l-1 -49 55 0 c53 0 55 -1 63 -32 4 -17 7 -210 7 -428 -1 -390 -1
-396 -25 -463 -18 -51 -36 -80 -72 -115 -26 -26 -48 -53 -48 -60 0 -7 12 -29
26 -47 l25 -34 80 34 c202 85 265 185 268 427 6 372 19 666 31 688 5 10 23 23
40 30 16 7 30 15 31 19 11 127 12 119 -16 117 -15 0 -28 -2 -29 -4z"/>
<path d="M1200 1830 c-1 -3 -5 -25 -9 -49 -12 -62 -6 -72 40 -69 22 1 45 -4
52 -11 16 -16 21 -686 6 -730 -11 -31 -47 -61 -73 -61 -22 0 -32 -28 -32 -84
l1 -50 55 4 c30 3 144 5 252 5 l198 0 5 45 c3 25 8 53 10 63 2 9 0 17 -3 17
-4 1 -31 2 -60 3 -78 3 -84 15 -84 157 0 25 1 52 1 60 1 13 15 16 74 15 39 0
96 2 125 6 117 16 242 110 297 224 83 168 8 370 -160 436 -58 23 -69 23 -377
24 -175 0 -318 -2 -318 -5z m535 -180 c55 -27 79 -74 78 -154 0 -78 -16 -125
-51 -159 -41 -39 -69 -46 -139 -34 l-62 10 5 136 c7 175 9 205 17 218 10 17
105 6 152 -17z"/>
</g>
</svg>
